<?xml version="1.0" encoding="UTF-8"?>
<svg xmlns="http://www.w3.org/2000/svg" xmlns:xlink="http://www.w3.org/1999/xlink" width="66px" height="48px" viewBox="0 0 66 48" version="1.1">
<defs>
<linearGradient id="linear0" gradientUnits="userSpaceOnUse" x1="44.965" y1="73.639999" x2="0.021" y2="6.412" gradientTransform="matrix(0.857143,0,0,0.857143,0,0)">
<stop offset="0.798" style="stop-color:rgb(95.294118%,2.745098%,27.058824%);stop-opacity:1;"/>
<stop offset="0.977" style="stop-color:rgb(100%,73.72549%,80.784314%);stop-opacity:1;"/>
</linearGradient>
<linearGradient id="linear1" gradientUnits="userSpaceOnUse" x1="19.513" y1="28.052999" x2="11.525" y2="27.039" gradientTransform="matrix(0.857143,0,0,0.857143,0,0)">
<stop offset="0.15" style="stop-color:rgb(100%,100%,100%);stop-opacity:1;"/>
<stop offset="0.62" style="stop-color:rgb(100%,100%,100%);stop-opacity:0.6;"/>
<stop offset="1" style="stop-color:rgb(100%,100%,100%);stop-opacity:0;"/>
</linearGradient>
<linearGradient id="linear2" gradientUnits="userSpaceOnUse" x1="12.146" y1="37.571999" x2="14.313" y2="25.753" gradientTransform="matrix(0.857143,0,0,0.857143,0,0)">
<stop offset="0.15" style="stop-color:rgb(100%,100%,100%);stop-opacity:1;"/>
<stop offset="0.62" style="stop-color:rgb(100%,100%,100%);stop-opacity:0.6;"/>
<stop offset="1" style="stop-color:rgb(100%,100%,100%);stop-opacity:0;"/>
</linearGradient>
</defs>
<g id="surface1">
<path style=" stroke:none;fill-rule:nonzero;fill:url(#linear0);" d="M 34.726562 26.394531 C 33.105469 40.519531 29.730469 43.203125 15.605469 41.582031 C 1.480469 39.960938 -1.199219 36.585938 0.417969 22.460938 C 2.039062 8.335938 5.414062 5.65625 19.539062 7.277344 C 33.664062 8.894531 36.34375 12.269531 34.726562 26.394531 Z M 34.726562 26.394531 "/>
<path style=" stroke:none;fill-rule:nonzero;fill:rgb(100%,100%,100%);fill-opacity:1;" d="M 62.589844 15.902344 C 61.179688 15.902344 60.003906 16.464844 58.890625 18.160156 L 54.457031 24.851562 L 54.855469 19.628906 C 55.003906 17.667969 53.773438 15.902344 51.578125 15.902344 C 49.527344 15.902344 48.265625 17.28125 48.148438 19.019531 L 47.449219 28.5625 C 47.289062 30.964844 48.519531 32.300781 50.539062 32.300781 C 52.558594 32.300781 53.714844 30.921875 54.605469 29.585938 L 58.890625 23.101562 L 58.507812 28.5625 C 58.34375 30.804688 59.515625 32.300781 61.710938 32.300781 C 63.746094 32.300781 65.050781 31.097656 65.183594 29.289062 L 65.898438 19.628906 C 66.03125 17.757812 65.109375 15.902344 62.589844 15.902344 Z M 45.699219 27.699219 C 45.699219 25.519531 44.039062 24.109375 41.839844 23.828125 C 43.890625 23.394531 45.6875 22.046875 45.6875 19.847656 C 45.6875 17.414062 43.800781 16.035156 40.34375 16.050781 L 33.339844 16.050781 C 30.105469 16.050781 28.902344 17.355469 28.648438 20.917969 L 28.234375 26.882812 C 27.953125 30.890625 29.09375 32.152344 33.042969 32.152344 L 39.75 32.152344 C 43.609375 32.152344 45.699219 30.5625 45.699219 27.699219 Z M 39.082031 27.269531 C 39.082031 28.648438 38.011719 29.304688 36.230469 29.304688 L 34.34375 29.289062 C 34.34375 29.289062 34.640625 27.34375 34.832031 25.398438 L 36.558594 25.398438 C 38.042969 25.398438 39.082031 26.007812 39.082031 27.269531 Z M 39.15625 20.738281 C 39.15625 21.925781 38.191406 22.640625 36.484375 22.640625 L 35.0625 22.640625 C 35.0625 22.640625 35.207031 20.476562 35.113281 18.914062 L 36.675781 18.914062 C 38.234375 18.914062 39.15625 19.582031 39.15625 20.738281 Z M 39.15625 20.738281 "/>
<path style=" stroke:none;fill-rule:nonzero;fill:url(#linear1);" d="M 23.371094 15.929688 C 21.945312 15.929688 20.808594 16.496094 19.667969 18.175781 L 15.238281 24.855469 L 15.648438 19.664062 C 15.773438 17.699219 14.539062 15.929688 12.355469 15.929688 C 10.332031 15.929688 9.0625 17.289062 8.9375 19.03125 L 8.242188 28.589844 C 8.082031 30.964844 9.316406 32.324219 11.28125 32.324219 C 13.242188 32.324219 14.476562 30.898438 15.394531 29.601562 L 19.667969 23.113281 L 19.289062 28.589844 C 19.097656 30.804688 20.300781 32.324219 22.484375 32.324219 C 24.511719 32.324219 25.839844 31.121094 25.964844 29.316406 L 26.664062 19.664062 C 26.820312 17.761719 25.902344 15.929688 23.371094 15.929688 Z M 23.371094 15.929688 "/>
<path style=" stroke:none;fill-rule:nonzero;fill:url(#linear2);" d="M 15.640625 19.667969 L 15.230469 24.859375 L 15.386719 29.605469 C 14.46875 30.90625 13.234375 32.328125 11.273438 32.328125 C 9.308594 32.328125 8.074219 30.96875 8.234375 28.59375 L 8.929688 19.035156 C 9.058594 17.292969 10.324219 15.933594 12.347656 15.933594 C 14.535156 15.933594 15.769531 17.703125 15.640625 19.667969 Z M 15.640625 19.667969 "/>
<path style=" stroke:none;fill-rule:nonzero;fill:rgb(100%,100%,100%);fill-opacity:1;" d="M 15.65625 19.390625 C 15.65625 17.582031 14.484375 15.925781 12.332031 15.925781 C 10.179688 15.925781 8.929688 17.539062 8.929688 19.28125 C 8.929688 21.148438 10.332031 22.605469 12.292969 22.605469 C 14.253906 22.605469 15.65625 21.257812 15.65625 19.390625 Z M 15.65625 19.390625 "/>
</g>
</svg>
